{
	"asset":{
		"version":"2.0",
		"generator":"Created using the official Cinema 4D glTF Exporter 1.000x284978"
	},
	"scenes":[{
		"nodes":[0]
	}],
	"bufferViews":[{
		"buffer":0,
		"byteOffset":0,
		"byteLength":7344,
		"target":34963
	},
	{
		"buffer":0,
		"byteOffset":7344,
		"byteLength":50880,
		"target":34962,
		"byteStride":32
	},
	{
		"buffer":1,
		"byteOffset":0,
		"byteLength":1920,
		"target":34963
	},
	{
		"buffer":1,
		"byteOffset":1920,
		"byteLength":10624,
		"target":34962,
		"byteStride":32
	},
	{
		"buffer":2,
		"byteOffset":0,
		"byteLength":36,
		"target":34963
	},
	{
		"buffer":2,
		"byteOffset":36,
		"byteLength":320,
		"target":34962,
		"byteStride":32
	},
	{
		"buffer":3,
		"byteOffset":0,
		"byteLength":88080,
		"target":34963
	},
	{
		"buffer":3,
		"byteOffset":88080,
		"byteLength":410208,
		"target":34962,
		"byteStride":32
	}],
	"nodes":[{
		"name":"服装10",
		"children":[1,
		2,
		4]
	},
	{
		"name":"圆柱.1",
		"translation":[76.59313201904297,
		62.31372833251953,
		0.0],
		"rotation":[0.0,
		0.0,
		0.8191520571708679,
		-0.5735764503479004],
		"scale":[1.0,
		1.0,
		1.0],
		"mesh":0
	},
	{
		"name":"平面",
		"translation":[0.0,
		198.0771942138672,
		98.78820037841797],
		"rotation":[0.0,
		0.0,
		0.0,
		-1.0],
		"scale":[1.0,
		1.0,
		1.0],
		"mesh":1,
		"children":[3]
	},
	{
		"name":"平面.1",
		"translation":[0.0,
		0.0,
		-2.470276355743408],
		"rotation":[0.0,
		0.0,
		0.0,
		-1.0],
		"scale":[1.0,
		1.0,
		1.0],
		"mesh":2
	},
	{
		"name":"地形",
		"translation":[26.483745574951173,
		48.35932922363281,
		14.318445205688477],
		"rotation":[0.0,
		0.0,
		0.0,
		-1.0],
		"scale":[1.0,
		1.0,
		1.0],
		"mesh":3
	}],
	"meshes":[{
		"name":"圆柱.1",
		"primitives":[{
			"attributes":{
				"POSITION":1,
				"NORMAL":2,
				"TEXCOORD_0":3
			},
			"indices":0,
			"material":0
		}]
	},
	{
		"name":"平面",
		"primitives":[{
			"attributes":{
				"POSITION":5,
				"NORMAL":6,
				"TEXCOORD_0":7
			},
			"indices":4,
			"material":1
		}]
	},
	{
		"name":"平面.1",
		"primitives":[{
			"attributes":{
				"POSITION":9,
				"NORMAL":10,
				"TEXCOORD_0":11
			},
			"indices":8,
			"material":2
		}]
	},
	{
		"name":"地形",
		"primitives":[{
			"attributes":{
				"POSITION":13,
				"NORMAL":14,
				"TEXCOORD_0":15
			},
			"indices":12,
			"material":3
		}]
	}],
	"accessors":[{
		"bufferView":0,
		"max":[1589],
		"type":"SCALAR",
		"componentType":5123,
		"min":[0],
		"count":3672,
		"byteOffset":0
	},
	{
		"bufferView":1,
		"max":[60.54360580444336,
		4.268006801605225,
		8.442903518676758],
		"type":"VEC3",
		"componentType":5126,
		"min":[-8.442903518676758,
		-151.5845947265625,
		-8.442903518676758],
		"count":1590,
		"byteOffset":0
	},
	{
		"bufferView":1,
		"max":[0.9995750784873962,
		1.0,
		0.9995750784873962],
		"type":"VEC3",
		"componentType":5126,
		"min":[-0.9995750784873962,
		-0.9963552951812744,
		-0.9995750784873962],
		"count":1590,
		"byteOffset":12
	},
	{
		"bufferView":1,
		"max":[1.0,
		1.0],
		"type":"VEC2",
		"componentType":5126,
		"min":[-0.30038613080978396,
		0.0],
		"count":1590,
		"byteOffset":24
	},
	{
		"bufferView":2,
		"max":[331],
		"type":"SCALAR",
		"componentType":5123,
		"min":[0],
		"count":960,
		"byteOffset":0
	},
	{
		"bufferView":3,
		"max":[90.57862854003906,
		16.84174346923828,
		0.0],
		"type":"VEC3",
		"componentType":5126,
		"min":[-90.57862854003906,
		-16.84174346923828,
		-4.570624828338623],
		"count":332,
		"byteOffset":0
	},
	{
		"bufferView":3,
		"max":[0.6332196593284607,
		1.0,
		1.0],
		"type":"VEC3",
		"componentType":5126,
		"min":[-0.6332196593284607,
		-1.0,
		-1.0],
		"count":332,
		"byteOffset":12
	},
	{
		"bufferView":3,
		"max":[1.0,
		1.0],
		"type":"VEC2",
		"componentType":5126,
		"min":[0.0,
		0.0],
		"count":332,
		"byteOffset":24
	},
	{
		"bufferView":4,
		"max":[9],
		"type":"SCALAR",
		"componentType":5123,
		"min":[0],
		"count":18,
		"byteOffset":0
	},
	{
		"bufferView":5,
		"max":[82.49147033691406,
		13.955032348632813,
		0.0],
		"type":"VEC3",
		"componentType":5126,
		"min":[-82.49147033691406,
		-13.6373872756958,
		0.0],
		"count":10,
		"byteOffset":0
	},
	{
		"bufferView":5,
		"max":[0.0,
		0.0,
		1.0],
		"type":"VEC3",
		"componentType":5126,
		"min":[0.0,
		0.0,
		1.0],
		"count":10,
		"byteOffset":12
	},
	{
		"bufferView":5,
		"max":[0.950892448425293,
		0.9142988920211792],
		"type":"VEC2",
		"componentType":5126,
		"min":[0.04910747706890106,
		0.09251436591148377],
		"count":10,
		"byteOffset":24
	},
	{
		"bufferView":6,
		"max":[12818],
		"type":"SCALAR",
		"componentType":5123,
		"min":[0],
		"count":44040,
		"byteOffset":0
	},
	{
		"bufferView":7,
		"max":[51.857181549072269,
		48.595947265625,
		29.98779296875],
		"type":"VEC3",
		"componentType":5126,
		"min":[-104.82467651367188,
		-49.25966262817383,
		-58.62468338012695],
		"count":12819,
		"byteOffset":0
	},
	{
		"bufferView":7,
		"max":[0.9998030066490173,
		1.0,
		1.0],
		"type":"VEC3",
		"componentType":5126,
		"min":[-0.9995917081832886,
		-1.0,
		-0.9995917081832886],
		"count":12819,
		"byteOffset":12
	},
	{
		"bufferView":7,
		"max":[0.9779436588287354,
		0.9961700439453125],
		"type":"VEC2",
		"componentType":5126,
		"min":[0.003829929046332836,
		0.003829929046332836],
		"count":12819,
		"byteOffset":24
	}],
	"materials":[{
		"pbrMetallicRoughness":{
			"baseColorFactor":[0.9,
			0.8009999999999989,
			0.7200000000000001,
			1.0],
			"metallicFactor":1.0,
			"roughnessFactor":1.0
		},
		"emissiveFactor":[0.0,
		0.0,
		0.0],
		"alphaMode":"OPAQUE",
		"doubleSided":true,
		"name":"材质.28"
	},
	{
		"pbrMetallicRoughness":{
			"baseColorTexture":{
				"index":0
			},
			"baseColorFactor":[0.12,
			0.12,
			0.12,
			1.0],
			"metallicFactor":1.0,
			"roughnessFactor":0.3
		},
		"emissiveFactor":[0.0,
		0.0,
		0.0],
		"alphaMode":"OPAQUE",
		"doubleSided":true,
		"name":"材质.29"
	},
	{
		"pbrMetallicRoughness":{
			"baseColorTexture":{
				"index":1
			},
			"baseColorFactor":[1.0,
			1.0,
			1.0,
			0.61],
			"metallicFactor":1.0,
			"roughnessFactor":0.1
		},
		"name":"材质.30",
		"emissiveTexture":{
			"index":2
		},
		"emissiveFactor":[1.0,
		1.0,
		1.0],
		"alphaMode":"BLEND",
		"doubleSided":true
	},
	{
		"pbrMetallicRoughness":{
			"baseColorTexture":{
				"index":3
			},
			"baseColorFactor":[1.0,
			1.0,
			1.0,
			1.0],
			"metallicFactor":1.0,
			"roughnessFactor":1.0
		},
		"emissiveFactor":[0.0,
		0.0,
		0.0],
		"alphaMode":"OPAQUE",
		"doubleSided":true,
		"name":"材质.2"
	}],
	"buffers":[{
		"uri":"data:application/octet-stream;base64,",
		"byteLength":58224
	},
	{
		"uri":"data:application/octet-stream;base64,",
		"byteLength":12544
	},
	{
		"uri":"data:application/octet-stream;base64,",
		"byteLength":356
	},
	{
		"uri":"data:application/octet-stream;base64,",
		"byteLength":498288
	}],
	"images":[{
		"uri":"data:image/jpeg;base64,"
	},
	{
		"uri":"data:image/jpeg;base64,"
	},
	{
		"uri":"data:image/jpeg;base64,"
	},
	{
		"uri":"data:image/jpeg;base64,"
	}],
	"samplers":[{
		"magFilter":9729,
		"minFilter":9729,
		"wrapS":10497,
		"wrapT":10497
	},
	{
		"magFilter":9729,
		"minFilter":9729,
		"wrapS":10497,
		"wrapT":10497
	},
	{
		"magFilter":9729,
		"minFilter":9729,
		"wrapS":10497,
		"wrapT":10497
	},
	{
		"magFilter":9729,
		"minFilter":9729,
		"wrapS":10497,
		"wrapT":10497
	}],
	"textures":[{
		"sampler":0,
		"source":0
	},
	{
		"sampler":1,
		"source":1
	},
	{
		"sampler":2,
		"source":2
	},
	{
		"sampler":3,
		"source":3
	}]
}